<svg id="b87585e8-0080-49fe-bdbd-351d1619a403" data-name="f934f965-d3c4-40a7-ae7f-393edda0151f" xmlns="http://www.w3.org/2000/svg" viewBox="0 0 252.39 94.7"><polygon points="211.335 26.114 220.305 20.942 211.469 15.688 211.335 26.114" style="fill:#e6e7e8"/><path d="M176.6119,0V41.8014H252.39V0ZM214.501,33.5209a12.62,12.62,0,1,1,12.62-12.62A12.62,12.62,0,0,1,214.501,33.5209Z" transform="translate(0 0)" style="fill:#e6e7e8"/><polygon points="34.723 26.114 43.693 20.942 34.857 15.688 34.723 26.114" style="fill:#e6e7e8"/><path d="M0,0V41.8014H75.778V0ZM37.889,33.5209a12.62,12.62,0,1,1,12.62-12.62A12.62,12.62,0,0,1,37.889,33.5209Z" transform="translate(0 0)" style="fill:#e6e7e8"/><polygon points="123.029 26.114 131.999 20.942 123.163 15.688 123.029 26.114" style="fill:#e6e7e8"/><path d="M88.306,0V41.8014h75.778V0Zm37.889,33.5209a12.62,12.62,0,1,1,12.62-12.62A12.62,12.62,0,0,1,126.195,33.5209Z" transform="translate(0 0)" style="fill:#e6e7e8"/><polygon points="211.335 79.012 220.305 73.841 211.469 68.586 211.335 79.012" style="fill:#e6e7e8"/><path d="M176.6119,52.8986V94.7H252.39V52.8986ZM214.501,86.42a12.62,12.62,0,1,1,12.62-12.62A12.62,12.62,0,0,1,214.501,86.42Z" transform="translate(0 0)" style="fill:#e6e7e8"/><polygon points="34.723 79.012 43.693 73.841 34.857 68.586 34.723 79.012" style="fill:#e6e7e8"/><path d="M0,52.8986V94.7H75.778V52.8986ZM37.889,86.42a12.62,12.62,0,1,1,12.62-12.62A12.62,12.62,0,0,1,37.889,86.42Z" transform="translate(0 0)" style="fill:#e6e7e8"/><polygon points="123.029 79.012 131.999 73.841 123.163 68.586 123.029 79.012" style="fill:#e6e7e8"/><path d="M88.306,52.8986V94.7h75.778V52.8986ZM126.195,86.42a12.62,12.62,0,1,1,12.62-12.62A12.62,12.62,0,0,1,126.195,86.42Z" transform="translate(0 0)" style="fill:#e6e7e8"/></svg>