<svg id="f44d7577-1753-4eb2-81e5-0a0a58ace731" data-name="Layer 1" xmlns="http://www.w3.org/2000/svg" viewBox="0 0 252.1 94.5"><title>icon</title><rect width="252.1" height="94.5" style="fill:#fff"/><rect x="78.65" y="63.5" width="26.8" height="4" style="fill:#e6e6e6"/><polyline points="75.95 67.5 65.15 67.5 65.15 63.5 75.95 63.5" style="fill:#e6e6e6"/><rect x="128.65" y="63.5" width="26.8" height="4" style="fill:#e6e6e6"/><polyline points="125.95 67.5 115.15 67.5 115.15 63.5 125.95 63.5" style="fill:#e6e6e6"/><rect x="65.15" y="53.5" width="26.8" height="4" style="fill:#e6e6e6"/><rect x="95.15" y="53.5" width="26.8" height="4" style="fill:#e6e6e6"/><polyline points="124.65 53.5 135.45 53.5 135.45 57.5 124.65 57.5" style="fill:#e6e6e6"/><rect x="138.15" y="53.5" width="26.8" height="4" style="fill:#e6e6e6"/><polyline points="167.65 53.5 178.45 53.5 178.45 57.5 167.65 57.5" style="fill:#e6e6e6"/><rect x="78.65" y="43.5" width="26.8" height="4" style="fill:#e6e6e6"/><polyline points="75.95 47.5 65.15 47.5 65.15 43.5 75.95 43.5" style="fill:#e6e6e6"/><rect x="128.65" y="43.5" width="26.8" height="4" style="fill:#e6e6e6"/><polyline points="125.95 47.5 115.15 47.5 115.15 43.5 125.95 43.5" style="fill:#e6e6e6"/><rect x="65.15" y="33.5" width="26.8" height="4" style="fill:#e6e6e6"/><rect x="95.15" y="33.5" width="26.8" height="4" style="fill:#e6e6e6"/><polyline points="124.65 33.5 135.45 33.5 135.45 37.5 124.65 37.5" style="fill:#e6e6e6"/><path d="M42,32.52l-6.66-3.93V26.11L42,22.18v3l-4,2.22,4,2.21Z" transform="translate(0 0)" style="fill:#e6e6e6"/><path d="M47.28,29.57l4-2.21-4-2.22v-3l6.66,3.93v2.48l-6.66,3.93Z" transform="translate(0 0)" style="fill:#e6e6e6"/><path d="M202,72.52l-6.66-3.93V66.11L202,62.18v3l-4,2.22,4,2.22Z" transform="translate(0 0)" style="fill:#e6e6e6"/><path d="M204.79,61H207l-2.16,12.63h-2.14Z" transform="translate(0 0)" style="fill:#e6e6e6"/><path d="M210.61,69.58l4-2.22-4-2.22v-3l6.66,3.93v2.48l-6.66,3.93Z" transform="translate(0 0)" style="fill:#e6e6e6"/></svg>