<svg xmlns="http://www.w3.org/2000/svg" viewBox="0 0 252.1 94.5"><title>text-image</title><g id="ecc2650c-9965-48cf-a1be-6f15ff352326" data-name="Layer 2"><g id="0ea20e41-11d7-45c7-98e8-1197cd041f3b" data-name="Layer 7"><rect width="252.1" height="94.5" style="fill:#fff"/></g><g id="3d767850-689d-4335-9574-9c8a658a6911" data-name="text with imag"><rect x="0.5" y="1.2" width="125.2" height="92.7" style="fill:#e6e7e8"/><path d="M40.25,26a9.14,9.14,0,1,0,9.14,9.14A9.14,9.14,0,0,0,40.25,26ZM32.42,69H95.09V50.76L80.8,36.48a2,2,0,0,0-2.77,0L55.92,58.6l-9.06-9.06a2,2,0,0,0-2.77,0L32.42,61.21Z" style="fill:#fff"/><rect x="157" y="54.5" width="43" height="4" style="fill:#e6e6e6"/><rect x="157" y="63.5" width="61" height="4" style="fill:#e6e6e6"/><path d="M213,41.5a2,2,0,0,1-2,2H159a2,2,0,0,1-2-2v-12a2,2,0,0,1,2-2h52a2,2,0,0,1,2,2Z" style="fill:#e6e6e6"/></g></g></svg>