<svg xmlns="http://www.w3.org/2000/svg" viewBox="0 0 253 95"><title>2col text</title><g id="7a676e2d-742f-4d6c-b09a-79339f67c4b8" data-name="Layer 2"><g id="fdfb2032-38ba-400e-bf5e-99e93ec20978" data-name="background"><rect width="253" height="95" style="fill:#fff"/></g><g id="0027d45f-155e-4037-98ef-4c3e6d6a8e5e" data-name="text over image copy"><path d="M27,11.71A15.16,15.16,0,1,0,41.87,26.87,15,15,0,0,0,27,11.71ZM14.16,83.16h121.6v-11l-42.61-43a3.17,3.17,0,0,0-4.52,0L52.53,65.84l-14.79-15a3.16,3.16,0,0,0-4.52,0L14.16,70.17Z" style="fill:#e6e7e8"/><path d="M241,81.54,221.91,62.18a3.16,3.16,0,0,0-4.52,0l-14.79,15L166.5,40.53a3.17,3.17,0,0,0-4.53,0L129.68,73.19l.12,10H241Z" style="fill:#e6e7e8"/><rect x="30.51" y="23.44" width="90.66" height="52" style="fill:#fff"/><rect x="37.78" y="54.44" width="53.96" height="4" style="fill:#e6e7e8"/><rect x="37.78" y="63.44" width="76.55" height="4" style="fill:#e6e7e8"/><path d="M108.06,41.44a2.31,2.31,0,0,1-2.51,2H40.29a2.31,2.31,0,0,1-2.51-2v-12a2.3,2.3,0,0,1,2.51-2h65.26a2.3,2.3,0,0,1,2.51,2Z" style="fill:#e6e7e8"/><rect x="131.84" y="23.44" width="90.66" height="52" style="fill:#fff"/><rect x="139.12" y="54.44" width="53.96" height="4" style="fill:#e6e7e8"/><rect x="139.12" y="63.44" width="76.55" height="4" style="fill:#e6e7e8"/><path d="M209.39,41.44a2.31,2.31,0,0,1-2.51,2H141.63a2.3,2.3,0,0,1-2.51-2v-12a2.29,2.29,0,0,1,2.51-2h65.25a2.3,2.3,0,0,1,2.51,2Z" style="fill:#e6e7e8"/></g></g></svg>