<svg xmlns="http://www.w3.org/2000/svg" xmlns:xlink="http://www.w3.org/1999/xlink" viewBox="0 0 289.68 94.5"><defs><clipPath id="ef1ddf62-4b23-4829-bb2c-e79097c3b3d7" transform="translate(18.54 0)"><rect width="252.1" height="94.5" style="fill:none"/></clipPath></defs><title>icon</title><g id="b90adf53-f81d-498e-9edb-4feeaef09a15" data-name="Layer 2"><g style="clip-path:url(#ef1ddf62-4b23-4829-bb2c-e79097c3b3d7)"><rect x="18.54" width="252.1" height="94.5" style="fill:#fff"/><rect x="100" width="89.68" height="77.9" style="fill:#e6e7e8"/><path d="M103.45,10a9.14,9.14,0,1,0,9.14,9.14h0A9.14,9.14,0,0,0,103.45,10ZM95.62,53h62.67V34.76L144,20.48a2,2,0,0,0-2.77,0L119.12,42.6l-9.06-9.06a2,2,0,0,0-2.77,0L95.62,45.21Z" transform="translate(18.54 0)" style="fill:#fff"/><rect x="200" width="89.68" height="77.9" style="fill:#e6e7e8"/><path d="M203.45,10a9.14,9.14,0,1,0,9.14,9.14h0A9.14,9.14,0,0,0,203.45,10Zm-7.83,43h62.67V34.76L244,20.48a2,2,0,0,0-2.77,0L219.12,42.6l-9.06-9.06a2,2,0,0,0-2.77,0L195.62,45.21Z" transform="translate(18.54 0)" style="fill:#fff"/><rect width="89.68" height="77.9" style="fill:#e6e7e8"/><path d="M3.45,10a9.14,9.14,0,1,0,9.14,9.14h0A9.14,9.14,0,0,0,3.45,10ZM-4.38,53H58.29V34.76L44,20.48a2,2,0,0,0-2.77,0L19.12,42.6l-9.06-9.06a2,2,0,0,0-2.77,0L-4.38,45.21Z" transform="translate(18.54 0)" style="fill:#fff"/><circle cx="120.84" cy="85.25" r="2.52" style="fill:#e6e7e8"/><circle cx="132.84" cy="85.25" r="2.52" style="fill:#e6e7e8"/><circle cx="144.84" cy="85.25" r="3.96" style="fill:#e6e7e8"/><circle cx="156.84" cy="85.25" r="2.52" style="fill:#e6e7e8"/><circle cx="168.84" cy="85.25" r="2.52" style="fill:#e6e7e8"/></g></g></svg>