<svg id="b4e0e653-c020-4623-97b5-e6050d1a9db1" data-name="Layer 1" xmlns="http://www.w3.org/2000/svg" viewBox="0 0 252.39 94.7"><title>icon</title><rect x="0.16" y="0.17" width="252.1" height="94.5" style="fill:#fff"/><rect y="56.03" width="252.28" height="38.67" style="fill:#e6e6e6"/><rect x="0.16" width="75.23" height="47.44" style="fill:#e6e7e8"/><path d="M24.54,10.2a5.53,5.53,0,1,0,5.53,5.53h0A5.53,5.53,0,0,0,24.54,10.2Zm-4.73,26h37.9v-11l-8.64-8.64a1.2,1.2,0,0,0-1.67,0L34,29.92l-5.48-5.48a1.2,1.2,0,0,0-1.67,0L19.81,31.5Z" transform="translate(0.16 0.17)" style="fill:#fff"/><rect x="139.21" y="76.67" width="43" height="4" style="fill:#fff"/><rect x="139.21" y="85.67" width="61" height="4" style="fill:#fff"/><path d="M195.05,70.25c0,.69-.9,1.25-2,1.25h-52c-1.11,0-2-.56-2-1.25V62.77c0-.69.89-1.25,2-1.25h52c1.1,0,2,.56,2,1.25Z" transform="translate(0.16 0.17)" style="fill:#fff"/><rect x="88.66" y="0.28" width="75.73" height="47.16" style="fill:#e6e7e8"/><path d="M112.54,10.2a5.53,5.53,0,1,0,5.53,5.53h0A5.53,5.53,0,0,0,112.54,10.2Zm-4.73,26h37.9v-11l-8.64-8.64a1.2,1.2,0,0,0-1.67,0L122,29.92l-5.48-5.48a1.2,1.2,0,0,0-1.67,0l-7.06,7.06Z" transform="translate(0.16 0.17)" style="fill:#fff"/><rect x="176.66" width="75.73" height="47.44" style="fill:#e6e7e8"/><path d="M200.54,10.2a5.53,5.53,0,1,0,5.53,5.53h0A5.53,5.53,0,0,0,200.54,10.2Zm-4.73,26h37.9v-11l-8.64-8.64a1.2,1.2,0,0,0-1.67,0L210,29.92l-5.48-5.48a1.2,1.2,0,0,0-1.67,0l-7.06,7.06Z" transform="translate(0.16 0.17)" style="fill:#fff"/><rect x="120.13" y="41.13" width="12.39" height="12.39" transform="translate(70.62 -75.3) rotate(45)" style="fill:#e6e7e8"/><path d="M53.06,58.65A11.68,11.68,0,1,0,64.74,70.33h0A11.68,11.68,0,0,0,53.06,58.65ZM67.22,94.51l-5.71-5.79a2.57,2.57,0,0,0-3.54,0l-5.66,5.66,70.82.06V90.28L104.87,72a2.55,2.55,0,0,0-3.54,0L78.9,94.44" transform="translate(0.16 0.17)" style="fill:#fff"/></svg>