<svg id="ff812082-79cb-4639-be13-57a3927e554d" data-name="Layer 1" xmlns="http://www.w3.org/2000/svg" viewBox="0 0 253 95"><title>icon</title><rect width="253" height="95" style="fill:#fff"/><path d="M67.88,28.72,55.81,16.64a3,3,0,0,0-2.1-.87H53V31.56H68.75v-.75A3,3,0,0,0,67.88,28.72ZM49,32.55V15.77H24.34a3,3,0,0,0-3,3V76a3,3,0,0,0,3,3H65.79a3,3,0,0,0,3-3V35.51H52A3,3,0,0,1,49,32.55Zm-19.74-7.9a1,1,0,0,1,1-1h9.87a1,1,0,0,1,1,1v2a1,1,0,0,1-1,1H30.26a1,1,0,0,1-1-1Zm0,9.87v-2a1,1,0,0,1,1-1h9.87a1,1,0,0,1,1,1v2a1,1,0,0,1-1,1H30.26A1,1,0,0,1,29.27,34.52ZM47,67.07v3a1,1,0,0,1-1,1h-2a1,1,0,0,1-1-1v-3a7,7,0,0,1-3.87-1.4,1,1,0,0,1-.07-1.49l1.45-1.39a1,1,0,0,1,1.25-.09,3,3,0,0,0,1.58.46H46.9a1.55,1.55,0,0,0,1.45-1.63,1.61,1.61,0,0,0-1.08-1.57l-5.55-1.66a5.59,5.59,0,0,1-3.9-5.35,5.49,5.49,0,0,1,5.27-5.56v-3a1,1,0,0,1,1-1h2a1,1,0,0,1,1,1v3a7,7,0,0,1,3.86,1.4A1,1,0,0,1,51,50.28l-1.45,1.39a1,1,0,0,1-1.25.09,3,3,0,0,0-1.59-.46H43.23a1.56,1.56,0,0,0-1.46,1.63,1.62,1.62,0,0,0,1.08,1.57l5.55,1.66a5.58,5.58,0,0,1,3.9,5.35A5.48,5.48,0,0,1,47,67.07Z" transform="translate(0 -0.06)" style="fill:#e6e6e6"/><rect x="56.91" y="14.69" width="27.07" height="65.55" style="fill:#fff"/><path d="M87.78,32.44V15.51H79.86v4h-4v-4h-13a3,3,0,0,0-3,3V76.23a3,3,0,0,0,3,3H104.7a3,3,0,0,0,3-3V35.42H90.76A3,3,0,0,1,87.78,32.44ZM71.84,19.5h4v4h-4Zm4,47.77a6.53,6.53,0,0,1-6.4-7.82L71.9,47.37v-4h4v-4h-4v-4h4v-4h-4v-4h4v-4h4v4h-4v4h4v4h-4v4h4v4h-4v4h2.75a1.51,1.51,0,0,1,1.47,1.2l2.15,10.91a6.52,6.52,0,0,1-6.39,7.79Zm4.07-6.59c0,1.85-1.81,3.36-4,3.36s-4.05-1.5-4.05-3.36,1.81-3.36,4-3.36S79.93,58.82,79.93,60.68Zm27.75-30v.76H91.76V15.51h.76a3,3,0,0,1,2.11.88l12.18,12.19A3,3,0,0,1,107.68,30.68Z" transform="translate(0 -0.06)" style="fill:#e6e6e6"/><rect x="95.91" y="14.69" width="27.07" height="65.55" style="fill:#fff"/><path d="M121.73,47.3c-.63-2-.62-5.88-.26-5.88C122.53,41.42,122.43,46,121.73,47.3Zm-.22,5.91A56.86,56.86,0,0,1,118,61.07a47,47,0,0,1,7.89-2.74,16.48,16.48,0,0,1-4.33-5.12ZM109.72,68.86c0,.1,1.65-.68,4.37-5C113.25,64.61,110.44,66.89,109.72,68.86ZM130,35.25h17.05V76.37a3,3,0,0,1-3,3H101.93a3,3,0,0,1-3-3V18.2a3,3,0,0,1,3-3H127v17A3,3,0,0,0,130,35.25Zm-1,21.54A12.54,12.54,0,0,1,123.66,50c.56-2.32,1.45-5.84.77-8-.59-3.68-5.31-3.32-6-.85-.63,2.3,0,5.53,1,9.65a118.79,118.79,0,0,1-5.12,10.76h0c-3.4,1.74-9.23,5.58-6.83,8.53a3.9,3.9,0,0,0,2.69,1.25c2.24,0,4.48-2.26,7.66-7.75a72.94,72.94,0,0,1,9.9-2.91,19,19,0,0,0,8,2.45c3.66,0,3.92-4,2.47-5.44C136.49,56,131.43,56.47,129,56.79Zm17.17-28.43L133.9,16.07a3,3,0,0,0-2.13-.87H131v16h16.05v-.76A3,3,0,0,0,146.18,28.36Zm-9.29,32c.52-.34-.31-1.49-5.36-1.13C136.18,61.21,136.89,60.36,136.89,60.36Z" transform="translate(0 -0.06)" style="fill:#e6e6e6"/><polygon points="208.95 66.54 196.46 79.04 184.01 66.6 208.95 66.54" style="fill:#e6e7e8"/><rect x="161.34" y="37.92" width="70.17" height="4" style="fill:#e6e7e8"/><rect x="161.34" y="46.92" width="70.03" height="4" style="fill:#e6e7e8"/><path d="M231.62,29a2.32,2.32,0,0,1-2.51,2H163.85a2.32,2.32,0,0,1-2.51-2V17a2.3,2.3,0,0,1,2.51-2h65.26a2.29,2.29,0,0,1,2.51,2Z" transform="translate(0 -0.06)" style="fill:#e6e7e8"/><rect x="161.34" y="56.92" width="70.17" height="4" style="fill:#e6e7e8"/></svg>