<svg xmlns="http://www.w3.org/2000/svg" viewBox="0 0 252.1 94.5"><title>text-over-image</title><g id="bdbd3ad3-6b75-4cab-8bd3-0b43d6136145" data-name="Layer 2"><g id="0039d8a1-e371-452b-a2d9-b5a7efe747cd" data-name="Layer 7"><rect width="252.1" height="94.5" style="fill:#fff"/></g><g id="c7bcf770-5a9a-4a24-a3f5-df4b0b9b9b77" data-name="text over image"><path d="M26.75,11.78A15.16,15.16,0,1,0,41.67,26.93,15,15,0,0,0,26.75,11.78ZM14,83.22h121.6v-11L93,29.23a3.16,3.16,0,0,0-4.52,0L52.33,65.9l-14.79-15a3.16,3.16,0,0,0-4.52,0L14,70.23Z" style="fill:#e6e7e8"/><path d="M240.77,81.6,221.71,62.25a3.16,3.16,0,0,0-4.52,0l-14.79,15L166.3,40.6a3.17,3.17,0,0,0-4.53,0L129.48,73.26l.12,10H240.77Z" style="fill:#e6e7e8"/><rect x="64.47" y="21.5" width="123.67" height="52" style="fill:#fff"/><polygon points="188.13 62.81 185.13 59.75 185.13 16.5 67.47 16.5 67.47 50.52 64.47 53.58 64.47 13.5 188.13 13.5 188.13 62.81" style="fill:#e6e7e8"/><polygon points="188.13 73.5 64.47 73.5 64.47 53.58 67.47 50.52 67.47 70.5 185.13 70.5 185.13 59.75 188.13 62.81 188.13 73.5" style="fill:#fff"/><rect x="95.8" y="54.5" width="43" height="4" style="fill:#e6e7e8"/><rect x="95.8" y="63.5" width="61" height="4" style="fill:#e6e7e8"/><path d="M151.8,41.5a2,2,0,0,1-2,2h-52a2,2,0,0,1-2-2v-12a2,2,0,0,1,2-2h52a2,2,0,0,1,2,2Z" style="fill:#e6e7e8"/></g></g></svg>