<svg xmlns="http://www.w3.org/2000/svg" viewBox="0 0 253 95"><title>Asset 34</title><g id="d6dad089-e1c1-4f8d-8699-caf8da33e95e" data-name="Layer 2"><g id="9330ef4e-dc73-4797-bc2a-6936c710e807" data-name="background"><rect width="253" height="95" style="fill:#fff"/></g><g id="0673349a-0a02-4493-8a6c-3601eebda7fe" data-name="boxes aroung image"><rect x="96.53" y="39.6" width="63.15" height="45.33" style="fill:#e6e7e8"/><path d="M116.59,51a4.57,4.57,0,1,0,4.61,4.57A4.58,4.58,0,0,0,116.59,51Zm-4,21.53h31.62V63.38L137,56.24a1,1,0,0,0-1.4,0L124.49,67.29l-4.57-4.53a1,1,0,0,0-1.4,0l-5.89,5.84Z" style="fill:#fff"/><rect x="96.4" y="30.94" width="63.3" height="4" style="fill:#e6e7e8"/><path d="M159.6,23.94a2,2,0,0,1-2,2H98.4a2,2,0,0,1-2-2v-12a2,2,0,0,1,2-2h59.2a2,2,0,0,1,2,2Z" style="fill:#e6e7e8"/><rect x="20.2" y="9.94" width="59.25" height="33.27" style="fill:#e6e7e8"/><rect x="22.9" y="27.57" width="53.21" height="4" style="fill:#fff"/><rect x="22.9" y="35.57" width="53.21" height="4" style="fill:#fff"/><path d="M76.1,22.58a1,1,0,0,1-1,1H23.89a1,1,0,0,1-1-1v-8a1,1,0,0,1,1-1H75.11a1,1,0,0,1,1,1Z" style="fill:#fff"/><rect x="20.2" y="51.66" width="59.25" height="33.27" style="fill:#e6e7e8"/><rect x="22.9" y="69.3" width="53.21" height="4" style="fill:#fff"/><rect x="22.9" y="77.3" width="53.21" height="4" style="fill:#fff"/><path d="M76.1,64.31a1,1,0,0,1-1,1H23.89a1,1,0,0,1-1-1v-8a1,1,0,0,1,1-1H75.11a1,1,0,0,1,1,1Z" style="fill:#fff"/><rect x="173.55" y="9.94" width="59.25" height="33.27" style="fill:#e6e7e8"/><rect x="176.25" y="27.57" width="53.21" height="4" style="fill:#fff"/><rect x="176.25" y="35.57" width="53.21" height="4" style="fill:#fff"/><path d="M229.45,22.58a1,1,0,0,1-1,1H177.24a1,1,0,0,1-1-1v-8a1,1,0,0,1,1-1h51.22a1,1,0,0,1,1,1Z" style="fill:#fff"/><rect x="173.55" y="51.66" width="59.25" height="33.27" style="fill:#e6e7e8"/><rect x="176.25" y="69.3" width="53.21" height="4" style="fill:#fff"/><rect x="176.25" y="77.3" width="53.21" height="4" style="fill:#fff"/><path d="M229.45,64.31a1,1,0,0,1-1,1H177.24a1,1,0,0,1-1-1v-8a1,1,0,0,1,1-1h51.22a1,1,0,0,1,1,1Z" style="fill:#fff"/></g></g></svg>