<svg xmlns="http://www.w3.org/2000/svg" viewBox="0 0 252.1 94.5"><title>random-quotes</title><g id="683ef897-55ff-43b8-a453-e4cf2864d518" data-name="Layer 2"><g id="f8ccec23-551b-4495-8e22-5b925fb9e401" data-name="Layer 7"><rect width="252.1" height="94.5" style="fill:#fff"/></g><g id="f39b813b-306b-4230-a75a-4c9e7920489e" data-name="quote"><rect x="55.45" y="54.67" width="130.03" height="3.66" style="fill:#e6e6e6"/><rect x="158.65" y="63.5" width="26.8" height="4" style="fill:#e6e6e6"/><polyline points="155.95 67.5 145.15 67.5 145.15 63.5 155.95 63.5" style="fill:#e6e6e6"/><rect x="55.45" y="45.5" width="142" height="4" style="fill:#e6e6e6"/><rect x="55.45" y="36.5" width="142" height="4" style="fill:#e6e6e6"/><path d="M59.86,25.31h3v7.06H55.44c.15-2.4-.31-4.82.34-7.19a7.5,7.5,0,0,1,6.31-5.38c.07.14.16.29.24.45l.48,1.08A4.6,4.6,0,0,0,59.86,25.31Z" style="fill:#e6e7e8"/><path d="M51.64,19.76l.71,1.57a4.6,4.6,0,0,0-3,4h3v7.1H44.82a61.65,61.65,0,0,1,.49-7A7.33,7.33,0,0,1,51.64,19.76Z" style="fill:#e6e7e8"/><path d="M192.74,61.67h-3V54.6h7.46c-.15,2.41.31,4.83-.34,7.2a7.5,7.5,0,0,1-6.31,5.38c-.07-.15-.16-.3-.24-.45-.15-.35-.31-.69-.48-1.08A4.61,4.61,0,0,0,192.74,61.67Z" style="fill:#e6e7e8"/><path d="M201,67.22l-.71-1.57a4.61,4.61,0,0,0,2.95-4h-3V54.59h7.57a61.67,61.67,0,0,1-.49,7A7.35,7.35,0,0,1,201,67.22Z" style="fill:#e6e7e8"/></g></g></svg>