<svg xmlns="http://www.w3.org/2000/svg" viewBox="0 0 253 95"><title>arrow-boxes</title><g id="42d563e5-2705-4ceb-9bb5-999a6e403b79" data-name="Layer 2"><g id="da90b807-8473-4468-96c3-aeab7d26f263" data-name="background"><rect width="253" height="95" style="fill:#fff"/></g><g id="af2718de-5164-4bf0-b771-21dc5899a8fb" data-name="arrow boxes"><polygon points="86.7 47.44 77.13 37.87 77.13 9.77 15.87 9.77 15.87 85.1 77.13 85.1 77.13 57.01 86.7 47.44" style="fill:#e6e7e8"/><rect x="19.9" y="42.27" width="53.21" height="4" style="fill:#fff"/><rect x="19.9" y="51.27" width="53.21" height="4" style="fill:#fff"/><path d="M73.1,35.27a2,2,0,0,1-2,2H21.9a2,2,0,0,1-2-2v-12a2,2,0,0,1,2-2H71.1a2,2,0,0,1,2,2Z" style="fill:#fff"/><rect x="19.9" y="60.27" width="53.21" height="4" style="fill:#fff"/><rect x="19.9" y="69.27" width="53.21" height="4" style="fill:#fff"/><polygon points="166.7 47.44 157.13 37.87 157.13 9.77 95.87 9.77 95.87 85.1 157.13 85.1 157.13 57.01 166.7 47.44" style="fill:#e6e7e8"/><rect x="99.9" y="42.27" width="53.21" height="4" style="fill:#fff"/><rect x="99.9" y="51.27" width="53.21" height="4" style="fill:#fff"/><path d="M153.1,35.27a2,2,0,0,1-2,2H101.9a2,2,0,0,1-2-2v-12a2,2,0,0,1,2-2h49.2a2,2,0,0,1,2,2Z" style="fill:#fff"/><rect x="99.9" y="60.27" width="53.21" height="4" style="fill:#fff"/><rect x="99.9" y="69.27" width="53.21" height="4" style="fill:#fff"/><rect x="175.87" y="9.77" width="61.27" height="75.33" style="fill:#e6e7e8"/><rect x="179.9" y="42.27" width="53.21" height="4" style="fill:#fff"/><rect x="179.9" y="51.27" width="53.21" height="4" style="fill:#fff"/><path d="M233.1,35.27a2,2,0,0,1-2,2H181.9a2,2,0,0,1-2-2v-12a2,2,0,0,1,2-2h49.2a2,2,0,0,1,2,2Z" style="fill:#fff"/><rect x="179.9" y="60.27" width="53.21" height="4" style="fill:#fff"/><rect x="179.9" y="69.27" width="53.21" height="4" style="fill:#fff"/></g></g></svg>