<svg id="f7fd765b-bf67-496a-9309-e545ea461a40" data-name="Layer 1" xmlns="http://www.w3.org/2000/svg" viewBox="0 0 252.1 94.5"><title>icon</title><rect width="252.1" height="94.5" style="fill:#fff"/><rect x="0.5" y="1.2" width="125.2" height="92.7" style="fill:#e6e7e8"/><rect x="157" y="43.5" width="43" height="4" style="fill:#e6e6e6"/><rect x="157" y="52.5" width="61" height="4" style="fill:#e6e6e6"/><path d="M217.74,31.5a2.1,2.1,0,0,1-2.17,2h-56.4a2.09,2.09,0,0,1-2.17-2v-12a2.09,2.09,0,0,1,2.17-2h56.4a2.1,2.1,0,0,1,2.17,2Z" transform="translate(0 0)" style="fill:#e6e6e6"/><path d="M71.36,11.13a13,13,0,0,0-13,13h0c0,3.85,1.51,8.22,5.6,12.31,5.23,5.23,6.42,10.4,6.42,14.81h2c0-4.41,1.19-9.58,6.42-14.81,4.09-4.09,5.59-8.46,5.59-12.31a13,13,0,0,0-13-13" transform="translate(0 0)" style="fill:none;stroke:#fff;stroke-miterlimit:10;stroke-width:5px"/><circle cx="71.3" cy="24.15" r="5.48" style="fill:#fff"/><path d="M73.37,51.92c20-16.33,44-2.89,41,15.67-3.3,20.63-53.67,24.33-66-5.67C43,48.92,13,65.59,5.7,54.25" transform="translate(0 0)" style="fill:none;stroke:#fff;stroke-miterlimit:10;stroke-width:5px;stroke-dasharray:12,12"/><circle cx="10.91" cy="58.8" r="5.48" style="fill:#fff"/><rect x="194.55" y="72.5" width="23.45" height="8" style="fill:#e6e6e6"/><circle cx="159.81" cy="64.82" r="2.76" style="fill:#e6e6e6"/><circle cx="169.81" cy="64.82" r="2.76" style="fill:#e6e6e6"/><circle cx="179.81" cy="64.82" r="2.76" style="fill:#e6e6e6"/></svg>