<svg xmlns="http://www.w3.org/2000/svg" viewBox="0 0 80 80"><title>link_1</title><g id="578c5377-d592-40cc-a8be-583ec64ae062" data-name="Layer 2"><g id="57e5ebc2-a3c0-42c6-882e-d00f388cbb2b" data-name="Layer 1"><g id="3c43b511-4505-4cae-9216-9cdde166dd0c" data-name="LINK"><polygon points="76.5 20.6 76.5 76.5 3.5 76.5 3.5 3.5 59.5 3.5 56 0 0 0 0 80 80 80 80 24.1 76.5 20.6" style="fill:#231f20"/><g style="isolation:isolate"><path d="M18,45.45h7.62v1H16.84V30.35H18Z"/><path d="M29.52,46.44H28.35V30.35h1.17Z"/><path d="M35.1,30.39a.6.6,0,0,1,.18.18L45.71,44.51q0-.34,0-.66V30.35h1V46.44h-.55a.46.46,0,0,1-.43-.23l-10.45-14c0,.23,0,.44,0,.64V46.44h-1V30.35h.58A.57.57,0,0,1,35.1,30.39Z"/><path d="M52.61,37.78h1l.37,0a1.24,1.24,0,0,0,.29-.06.92.92,0,0,0,.24-.13,2.28,2.28,0,0,0,.23-.22l6.5-6.67a.84.84,0,0,1,.72-.33h.94l-7,7.22a3.61,3.61,0,0,1-.38.35,1.36,1.36,0,0,1-.37.21,1.15,1.15,0,0,1,.43.21,2.21,2.21,0,0,1,.39.37l7.4,7.73h-.94a.93.93,0,0,1-.43-.07,1,1,0,0,1-.26-.24l-6.8-7L54.64,39a1.43,1.43,0,0,0-.24-.16,1.26,1.26,0,0,0-.31-.09,2.76,2.76,0,0,0-.44,0h-1v7.75H51.44V30.35h1.17Z"/></g><polyline points="71.77 19.43 72.97 20.63 72.97 7.2 72.77 7 59.5 7 60.6 8.1 71.77 8.1" style="fill:#231f20"/></g></g></g></svg>