<svg xmlns="http://www.w3.org/2000/svg" viewBox="0 0 80 80"><title>pdf</title><g id="f66e9efe-0939-4cc2-9b9c-02cee4d16d42" data-name="Layer 2"><g id="6a433f85-ca3e-4922-ba7d-1bf01d3f81a6" data-name="Layer 1"><g id="6850e834-fcb3-41be-86ef-edfd45d9d8dd" data-name="PDF"><polyline points="56 0 0 0 0 80 80 80 80 24.1" style="fill:#231f20"/><path d="M30.9,58.5h1.7L40,65.9l7.4-7.4h1.7l-8.9,8.9h-.3Z" style="fill:#fff"/><g style="isolation:isolate"><path d="M21.13,40v6.48H20V30.35h4.16a6.36,6.36,0,0,1,4.27,1.24,4.43,4.43,0,0,1,1.44,3.54,4.77,4.77,0,0,1-.4,1.94,4.51,4.51,0,0,1-1.14,1.53,5.22,5.22,0,0,1-1.8,1,7.28,7.28,0,0,1-2.37.36Zm0-.93h3a5.65,5.65,0,0,0,1.9-.3,4.21,4.21,0,0,0,1.42-.82,3.62,3.62,0,0,0,.9-1.23,3.77,3.77,0,0,0,.31-1.55,3.6,3.6,0,0,0-1.13-2.86,5.06,5.06,0,0,0-3.4-1h-3Z" style="fill:#fff"/><path d="M46.65,38.39a9.53,9.53,0,0,1-.55,3.35,7.42,7.42,0,0,1-1.57,2.54,6.82,6.82,0,0,1-2.43,1.6,8.45,8.45,0,0,1-3.12.56H33.1V30.35H39a8.45,8.45,0,0,1,3.12.56,6.82,6.82,0,0,1,2.43,1.6,7.42,7.42,0,0,1,1.57,2.54A9.47,9.47,0,0,1,46.65,38.39Zm-1.2,0a9,9,0,0,0-.47-3,6.26,6.26,0,0,0-1.32-2.23,5.66,5.66,0,0,0-2-1.39A7,7,0,0,0,39,31.3H34.27V45.5H39A7,7,0,0,0,41.62,45a5.66,5.66,0,0,0,2-1.39A6.26,6.26,0,0,0,45,41.4,9,9,0,0,0,45.45,38.39Z" style="fill:#fff"/><path d="M60,30.35v1H51.55v6.76h7.34v1H51.55v7.39H50.38V30.35Z" style="fill:#fff"/></g></g></g></g></svg>