<svg xmlns="http://www.w3.org/2000/svg" viewBox="0 0 252.1 94.5"><title>intro_2</title><g id="628177b5-0af9-4770-aaae-c7541c540292" data-name="Layer 2"><g id="72ca5fae-8671-4c88-b5fb-ba15df5b219a" data-name="Layer 7"><rect width="252.1" height="94.5" style="fill:#fff"/></g><g id="2cfe4d7b-3f9c-437a-b602-155dd9eea88d" data-name="into"><path d="M203.8,41.5a2,2,0,0,1-2,2H50.8a2,2,0,0,1-2-2v-12a2,2,0,0,1,2-2h151a2,2,0,0,1,2,2Z" style="fill:#e6e6e6"/><path d="M179.78,61.5a2,2,0,0,1-2,2H74.83a2,2,0,0,1-2-2v-12a2,2,0,0,1,2-2h103a2,2,0,0,1,2,2Z" style="fill:#e6e6e6"/></g></g></svg>