<svg xmlns="http://www.w3.org/2000/svg" viewBox="0 0 253 95"><title>ken burns</title><g id="af2dc992-37ba-4374-8ba4-102a6e4d01a3" data-name="Layer 2"><g id="9f9dcc83-5173-46e2-9493-0e1889d26c39" data-name="background"><rect width="253" height="95" style="fill:#e6e7e8"/></g><g id="580db94c-6042-40be-b878-1a6df2b5f878" data-name="ken burns"><path d="M163.59,32.44A6.36,6.36,0,1,0,170,38.8,6.36,6.36,0,0,0,163.59,32.44Zm-5.45,30h43.63V49.71l-9.94-10a1.37,1.37,0,0,0-1.93,0l-15.4,15.4-6.31-6.3a1.35,1.35,0,0,0-1.93,0L158.14,57Z" style="fill:#fff"/><path d="M230.52,82.12V66.75a1.34,1.34,0,0,0-1.34-1.34h-1.79a1.34,1.34,0,0,0-1.34,1.34L226,79l-12.21,0a1.35,1.35,0,0,0-1.33,1.35v1.79a1.34,1.34,0,0,0,1.34,1.34h15.36A1.34,1.34,0,0,0,230.52,82.12Z" style="fill:#fff"/><path d="M230.52,12.75V28.12a1.34,1.34,0,0,1-1.34,1.34h-1.79a1.34,1.34,0,0,1-1.34-1.34l0-12.2-12.21,0a1.33,1.33,0,0,1-1.33-1.34v-1.8a1.34,1.34,0,0,1,1.34-1.34h15.36A1.34,1.34,0,0,1,230.52,12.75Z" style="fill:#fff"/><path d="M92.48,82.12V66.75a1.34,1.34,0,0,1,1.34-1.34h1.79A1.34,1.34,0,0,1,97,66.75L97,79l12.21,0a1.35,1.35,0,0,1,1.33,1.35v1.79a1.34,1.34,0,0,1-1.34,1.34H93.82A1.34,1.34,0,0,1,92.48,82.12Z" style="fill:#fff"/><path d="M92.48,12.75V28.12a1.34,1.34,0,0,0,1.34,1.34h1.79A1.34,1.34,0,0,0,97,28.12l0-12.2,12.21,0a1.33,1.33,0,0,0,1.33-1.34v-1.8a1.34,1.34,0,0,0-1.34-1.34H93.82A1.34,1.34,0,0,0,92.48,12.75Z" style="fill:#fff"/><path d="M119.54,25.7a8.59,8.59,0,1,0,8.58,8.58A8.58,8.58,0,0,0,119.54,25.7Zm-7.36,40.47h27V51.69l-4.95,4.67-8.51-8.51a1.83,1.83,0,0,0-2.6,0l-11,11Z" style="fill:#fff"/><path d="M51.32,11.74A13.87,13.87,0,1,0,65.19,25.61,13.87,13.87,0,0,0,51.32,11.74ZM39.43,77.13H87.7l0-28.43L75.1,61.28,61.35,47.53a3,3,0,0,0-4.2,0L39.43,65.24Z" style="fill:#fff"/><path d="M144,71.87V63.5a1.34,1.34,0,0,1,1.34-1.34h1.79a1.34,1.34,0,0,1,1.34,1.34l0,5.21,5.21,0A1.35,1.35,0,0,1,155,70.08v1.79a1.34,1.34,0,0,1-1.34,1.34h-8.36A1.34,1.34,0,0,1,144,71.87Z" style="fill:#fff"/><path d="M144,23v8.37a1.34,1.34,0,0,0,1.34,1.34h1.79a1.34,1.34,0,0,0,1.34-1.34l0-5.2,5.21,0A1.33,1.33,0,0,0,155,24.8V23a1.34,1.34,0,0,0-1.34-1.34h-8.36A1.34,1.34,0,0,0,144,23Z" style="fill:#fff"/><path d="M215,71.87V63.5a1.34,1.34,0,0,0-1.34-1.34h-1.79a1.34,1.34,0,0,0-1.34,1.34l0,5.21-5.21,0A1.35,1.35,0,0,0,204,70.08v1.79a1.34,1.34,0,0,0,1.34,1.34h8.36A1.34,1.34,0,0,0,215,71.87Z" style="fill:#fff"/><path d="M215,23v8.37a1.34,1.34,0,0,1-1.34,1.34h-1.79a1.34,1.34,0,0,1-1.34-1.34l0-5.2-5.21,0A1.33,1.33,0,0,1,204,24.8V23a1.34,1.34,0,0,1,1.34-1.34h8.36A1.34,1.34,0,0,1,215,23Z" style="fill:#fff"/></g></g></svg>